<mxfile host="app.diagrams.net" modified="2023-05-11T07:59:47.871Z" agent="Mozilla/5.0 (Windows NT 10.0; Win64; x64) AppleWebKit/537.36 (KHTML, like Gecko) Chrome/112.0.0.0 Safari/537.36" etag="m41PZLXC3Pv6tZ12i_k2" version="21.2.9" type="github">
  <diagram name="Page-1" id="Q9FTQVwlkuvV_LZ7aox5">
    <mxGraphModel dx="1434" dy="1864" grid="1" gridSize="10" guides="1" tooltips="1" connect="1" arrows="1" fold="1" page="1" pageScale="1" pageWidth="850" pageHeight="1100" math="0" shadow="0">
      <root>
        <mxCell id="0" />
        <mxCell id="1" parent="0" />
        <mxCell id="G8atsEgeVlMIXE3ZOCmT-4" value="" style="rounded=0;whiteSpace=wrap;html=1;dashed=1;dashPattern=1 4;" vertex="1" parent="1">
          <mxGeometry x="70" y="-90" width="640" height="350" as="geometry" />
        </mxCell>
        <mxCell id="5EF7rtsnszMx5y5t_XUD-1" value="" style="whiteSpace=wrap;html=1;aspect=fixed;dashed=1;dashPattern=12 12;" parent="1" vertex="1">
          <mxGeometry x="70" y="260" width="640" height="640" as="geometry" />
        </mxCell>
        <mxCell id="5EF7rtsnszMx5y5t_XUD-2" value="Powered on" style="ellipse;whiteSpace=wrap;html=1;" parent="1" vertex="1">
          <mxGeometry x="420" y="390" width="120" height="80" as="geometry" />
        </mxCell>
        <mxCell id="5EF7rtsnszMx5y5t_XUD-3" value="Powered off" style="ellipse;whiteSpace=wrap;html=1;" parent="1" vertex="1">
          <mxGeometry x="420" y="660" width="120" height="80" as="geometry" />
        </mxCell>
        <mxCell id="5EF7rtsnszMx5y5t_XUD-4" value="IPMI Unmanaged" style="ellipse;whiteSpace=wrap;html=1;" parent="1" vertex="1">
          <mxGeometry x="150" y="120" width="120" height="80" as="geometry" />
        </mxCell>
        <mxCell id="5EF7rtsnszMx5y5t_XUD-5" style="edgeStyle=orthogonalEdgeStyle;rounded=0;orthogonalLoop=1;jettySize=auto;html=1;entryX=1;entryY=0.5;entryDx=0;entryDy=0;" parent="1" source="5EF7rtsnszMx5y5t_XUD-6" target="5EF7rtsnszMx5y5t_XUD-24" edge="1">
          <mxGeometry relative="1" as="geometry">
            <Array as="points">
              <mxPoint x="461" y="555" />
            </Array>
          </mxGeometry>
        </mxCell>
        <mxCell id="5EF7rtsnszMx5y5t_XUD-6" value="Powering on&lt;br&gt;intermediate state" style="rounded=1;whiteSpace=wrap;html=1;dashed=1;dashPattern=1 2;fontSize=9;fillColor=#fff2cc;strokeColor=#d6b656;" parent="1" vertex="1">
          <mxGeometry x="345" y="540" width="92.5" height="30" as="geometry" />
        </mxCell>
        <mxCell id="5EF7rtsnszMx5y5t_XUD-7" value="Power on" style="rounded=1;whiteSpace=wrap;html=1;fontSize=9;dashed=1;dashPattern=1 4;rotation=0;fillColor=#ffe6cc;strokeColor=#d79b00;" parent="1" vertex="1">
          <mxGeometry x="367.5" y="512.5" width="70" height="20" as="geometry" />
        </mxCell>
        <mxCell id="5EF7rtsnszMx5y5t_XUD-8" value="" style="endArrow=classic;html=1;rounded=0;exitX=0;exitY=0;exitDx=0;exitDy=0;entryX=0;entryY=1;entryDx=0;entryDy=0;" parent="1" source="5EF7rtsnszMx5y5t_XUD-3" target="5EF7rtsnszMx5y5t_XUD-2" edge="1">
          <mxGeometry width="50" height="50" relative="1" as="geometry">
            <mxPoint x="570" y="610" as="sourcePoint" />
            <mxPoint x="620" y="560" as="targetPoint" />
          </mxGeometry>
        </mxCell>
        <mxCell id="5EF7rtsnszMx5y5t_XUD-9" value="" style="endArrow=classic;html=1;rounded=0;exitX=0.913;exitY=0.799;exitDx=0;exitDy=0;exitPerimeter=0;" parent="1" source="5EF7rtsnszMx5y5t_XUD-2" edge="1">
          <mxGeometry width="50" height="50" relative="1" as="geometry">
            <mxPoint x="570" y="610" as="sourcePoint" />
            <mxPoint x="530" y="680" as="targetPoint" />
          </mxGeometry>
        </mxCell>
        <mxCell id="5EF7rtsnszMx5y5t_XUD-10" style="edgeStyle=orthogonalEdgeStyle;rounded=0;orthogonalLoop=1;jettySize=auto;html=1;entryX=1;entryY=0.5;entryDx=0;entryDy=0;" parent="1" source="5EF7rtsnszMx5y5t_XUD-11" target="5EF7rtsnszMx5y5t_XUD-24" edge="1">
          <mxGeometry relative="1" as="geometry">
            <Array as="points">
              <mxPoint x="576" y="575" />
            </Array>
          </mxGeometry>
        </mxCell>
        <mxCell id="5EF7rtsnszMx5y5t_XUD-11" value="Powering off&lt;br&gt;intermediate state" style="rounded=1;whiteSpace=wrap;html=1;dashed=1;dashPattern=1 2;fontSize=9;fillColor=#fff2cc;strokeColor=#d6b656;" parent="1" vertex="1">
          <mxGeometry x="530" y="540" width="92.5" height="30" as="geometry" />
        </mxCell>
        <mxCell id="5EF7rtsnszMx5y5t_XUD-12" value="Power off" style="rounded=1;whiteSpace=wrap;html=1;fontSize=9;dashed=1;dashPattern=1 4;rotation=0;fillColor=#ffe6cc;strokeColor=#d79b00;" parent="1" vertex="1">
          <mxGeometry x="530" y="512.5" width="70" height="20" as="geometry" />
        </mxCell>
        <mxCell id="5EF7rtsnszMx5y5t_XUD-15" value="Restart" style="rounded=1;whiteSpace=wrap;html=1;fontSize=9;dashed=1;dashPattern=1 4;rotation=0;fillColor=#ffe6cc;strokeColor=#d79b00;" parent="1" vertex="1">
          <mxGeometry x="445" y="400" width="70" height="20" as="geometry" />
        </mxCell>
        <mxCell id="5EF7rtsnszMx5y5t_XUD-16" value="IPMI managed" style="ellipse;whiteSpace=wrap;html=1;dashed=1;" parent="1" vertex="1">
          <mxGeometry x="435" y="120" width="120" height="80" as="geometry" />
        </mxCell>
        <mxCell id="5EF7rtsnszMx5y5t_XUD-17" value="" style="endArrow=classic;html=1;rounded=0;exitX=0.5;exitY=1;exitDx=0;exitDy=0;dashed=1;" parent="1" source="5EF7rtsnszMx5y5t_XUD-16" edge="1">
          <mxGeometry width="50" height="50" relative="1" as="geometry">
            <mxPoint x="380" y="320" as="sourcePoint" />
            <mxPoint x="494.9999999999998" y="260" as="targetPoint" />
          </mxGeometry>
        </mxCell>
        <mxCell id="5EF7rtsnszMx5y5t_XUD-18" value="" style="endArrow=classic;html=1;rounded=0;exitX=1;exitY=0.5;exitDx=0;exitDy=0;entryX=0;entryY=0.5;entryDx=0;entryDy=0;" parent="1" source="5EF7rtsnszMx5y5t_XUD-4" target="5EF7rtsnszMx5y5t_XUD-16" edge="1">
          <mxGeometry width="50" height="50" relative="1" as="geometry">
            <mxPoint x="380" y="320" as="sourcePoint" />
            <mxPoint x="430" y="270" as="targetPoint" />
          </mxGeometry>
        </mxCell>
        <mxCell id="5EF7rtsnszMx5y5t_XUD-19" value="Start" style="ellipse;whiteSpace=wrap;html=1;aspect=fixed;" parent="1" vertex="1">
          <mxGeometry x="195" y="-60" width="30" height="30" as="geometry" />
        </mxCell>
        <mxCell id="5EF7rtsnszMx5y5t_XUD-20" style="edgeStyle=orthogonalEdgeStyle;rounded=0;orthogonalLoop=1;jettySize=auto;html=1;" parent="1" source="5EF7rtsnszMx5y5t_XUD-21" target="5EF7rtsnszMx5y5t_XUD-4" edge="1">
          <mxGeometry relative="1" as="geometry" />
        </mxCell>
        <mxCell id="5EF7rtsnszMx5y5t_XUD-21" value="Add Host" style="rounded=1;whiteSpace=wrap;html=1;" parent="1" vertex="1">
          <mxGeometry x="157.5" width="105" height="50" as="geometry" />
        </mxCell>
        <mxCell id="5EF7rtsnszMx5y5t_XUD-22" value="" style="endArrow=classic;html=1;rounded=0;exitX=0.5;exitY=1;exitDx=0;exitDy=0;entryX=0.5;entryY=0;entryDx=0;entryDy=0;" parent="1" source="5EF7rtsnszMx5y5t_XUD-19" target="5EF7rtsnszMx5y5t_XUD-21" edge="1">
          <mxGeometry width="50" height="50" relative="1" as="geometry">
            <mxPoint x="430" y="140" as="sourcePoint" />
            <mxPoint x="480" y="90" as="targetPoint" />
          </mxGeometry>
        </mxCell>
        <mxCell id="5EF7rtsnszMx5y5t_XUD-23" value="Add IPMI username&amp;amp;password" style="rounded=1;whiteSpace=wrap;html=1;" parent="1" vertex="1">
          <mxGeometry x="290" y="120" width="120" height="30" as="geometry" />
        </mxCell>
        <mxCell id="5EF7rtsnszMx5y5t_XUD-24" value="Unknown" style="ellipse;whiteSpace=wrap;html=1;" parent="1" vertex="1">
          <mxGeometry x="140" y="532.5" width="125" height="85" as="geometry" />
        </mxCell>
        <mxCell id="5EF7rtsnszMx5y5t_XUD-25" value="" style="endArrow=classic;startArrow=classic;html=1;rounded=0;entryX=0.045;entryY=0.718;entryDx=0;entryDy=0;entryPerimeter=0;" parent="1" source="5EF7rtsnszMx5y5t_XUD-24" target="5EF7rtsnszMx5y5t_XUD-2" edge="1">
          <mxGeometry width="50" height="50" relative="1" as="geometry">
            <mxPoint x="360" y="520" as="sourcePoint" />
            <mxPoint x="410" y="470" as="targetPoint" />
          </mxGeometry>
        </mxCell>
        <mxCell id="5EF7rtsnszMx5y5t_XUD-26" value="" style="endArrow=classic;startArrow=classic;html=1;rounded=0;entryX=-0.009;entryY=0.439;entryDx=0;entryDy=0;entryPerimeter=0;exitX=1;exitY=1;exitDx=0;exitDy=0;" parent="1" source="5EF7rtsnszMx5y5t_XUD-24" target="5EF7rtsnszMx5y5t_XUD-3" edge="1">
          <mxGeometry width="50" height="50" relative="1" as="geometry">
            <mxPoint x="268" y="559" as="sourcePoint" />
            <mxPoint x="435" y="457" as="targetPoint" />
          </mxGeometry>
        </mxCell>
        <mxCell id="5EF7rtsnszMx5y5t_XUD-29" value="Power off/Restart" style="rounded=1;whiteSpace=wrap;html=1;rotation=0;" parent="1" vertex="1">
          <mxGeometry x="410" y="20" width="120" height="30" as="geometry" />
        </mxCell>
        <mxCell id="5EF7rtsnszMx5y5t_XUD-32" value="" style="curved=1;endArrow=classic;html=1;rounded=0;entryX=0;entryY=0.75;entryDx=0;entryDy=0;exitX=0.749;exitY=0.042;exitDx=0;exitDy=0;exitPerimeter=0;" parent="1" source="5EF7rtsnszMx5y5t_XUD-4" target="5EF7rtsnszMx5y5t_XUD-29" edge="1">
          <mxGeometry width="50" height="50" relative="1" as="geometry">
            <mxPoint x="247.5" y="120" as="sourcePoint" />
            <mxPoint x="297.5" y="70" as="targetPoint" />
            <Array as="points">
              <mxPoint x="297.5" y="120" />
              <mxPoint x="400" y="20" />
            </Array>
          </mxGeometry>
        </mxCell>
        <mxCell id="5EF7rtsnszMx5y5t_XUD-33" value="If in Connected Status" style="rounded=1;whiteSpace=wrap;html=1;fillColor=#ffe6cc;strokeColor=#d79b00;" parent="1" vertex="1">
          <mxGeometry x="350" y="70" width="120" height="30" as="geometry" />
        </mxCell>
        <mxCell id="5EF7rtsnszMx5y5t_XUD-35" value="" style="endArrow=classic;html=1;rounded=0;" parent="1" edge="1" source="5EF7rtsnszMx5y5t_XUD-24">
          <mxGeometry width="50" height="50" relative="1" as="geometry">
            <mxPoint x="280" y="510" as="sourcePoint" />
            <mxPoint x="440" y="170" as="targetPoint" />
            <Array as="points">
              <mxPoint x="203" y="230" />
              <mxPoint x="320" y="230" />
              <mxPoint x="440" y="230" />
            </Array>
          </mxGeometry>
        </mxCell>
        <mxCell id="5EF7rtsnszMx5y5t_XUD-36" value="Modify IPMI username&amp;amp;password" style="rounded=1;whiteSpace=wrap;html=1;" parent="1" vertex="1">
          <mxGeometry x="290" y="190" width="120" height="30" as="geometry" />
        </mxCell>
      </root>
    </mxGraphModel>
  </diagram>
</mxfile>
